<mxfile host="app.diagrams.net" modified="2021-04-25T22:01:38.755Z" agent="5.0 (Windows NT 10.0; Win64; x64) AppleWebKit/537.36 (KHTML, like Gecko) Chrome/90.0.4430.85 Safari/537.36" etag="Ait0TgYE-YHL4a5O1byv" version="14.6.6" type="github" pages="3">
  <diagram id="QQjb7B1x9FnSJum1Ktwq" name="Actors_ActionsList">
    <mxGraphModel dx="3129" dy="-5" grid="1" gridSize="10" guides="1" tooltips="1" connect="1" arrows="1" fold="1" page="1" pageScale="1" pageWidth="827" pageHeight="1169" math="0" shadow="0">
      <root>
        <mxCell id="0" />
        <mxCell id="1" parent="0" />
        <mxCell id="cV49GLbtdZbuWx6RyrEC-1" value="&lt;br&gt;Customer" style="shape=actor;whiteSpace=wrap;html=1;fontStyle=1" parent="1" vertex="1">
          <mxGeometry x="-750" y="1400" width="40" height="50" as="geometry" />
        </mxCell>
        <mxCell id="cV49GLbtdZbuWx6RyrEC-2" value="&lt;br&gt;Expert" style="shape=actor;whiteSpace=wrap;html=1;fontStyle=1" parent="1" vertex="1">
          <mxGeometry x="-750" y="1570" width="40" height="50" as="geometry" />
        </mxCell>
        <mxCell id="GBkBr9sgOypdlljieGhE-1" value="&lt;br&gt;Manager" style="shape=actor;whiteSpace=wrap;html=1;fontStyle=1" parent="1" vertex="1">
          <mxGeometry x="-750" y="1754" width="40" height="50" as="geometry" />
        </mxCell>
        <mxCell id="GBkBr9sgOypdlljieGhE-2" value="&lt;br&gt;&lt;br&gt;Administrator" style="shape=actor;whiteSpace=wrap;html=1;fontStyle=1" parent="1" vertex="1">
          <mxGeometry x="-750" y="1970" width="40" height="50" as="geometry" />
        </mxCell>
        <mxCell id="EJEmB71T8K7dt9peTRfo-1" value="&lt;ul&gt;&lt;li&gt;Registers for Service&lt;/li&gt;&lt;li&gt;Maintain their profile, plans/contracts, billing information&lt;/li&gt;&lt;li&gt;Creates Problem Tickets&lt;/li&gt;&lt;li&gt;Provide Feedback through surveys&lt;/li&gt;&lt;/ul&gt;" style="text;strokeColor=none;fillColor=none;html=1;whiteSpace=wrap;verticalAlign=middle;overflow=hidden;" vertex="1" parent="1">
          <mxGeometry x="-690" y="1380" width="410" height="80" as="geometry" />
        </mxCell>
        <mxCell id="EJEmB71T8K7dt9peTRfo-2" value="&lt;ul&gt;&lt;li&gt;Work on Assigned tickets and Fix problems&lt;/li&gt;&lt;li&gt;Updates notes on Tickets&lt;/li&gt;&lt;li&gt;Search Knowledge Base&lt;/li&gt;&lt;li&gt;Updates Knowledge Base (? - Directly / Indirectly)&lt;/li&gt;&lt;/ul&gt;" style="text;strokeColor=none;fillColor=none;html=1;whiteSpace=wrap;verticalAlign=middle;overflow=hidden;" vertex="1" parent="1">
          <mxGeometry x="-690" y="1555" width="410" height="80" as="geometry" />
        </mxCell>
        <mxCell id="EJEmB71T8K7dt9peTRfo-3" value="&lt;ul&gt;&lt;li&gt;Manages internal users of the system&lt;/li&gt;&lt;li&gt;Manages list of experts and their details (skill, location and availability)&lt;/li&gt;&lt;li&gt;Billing processing for customers&lt;/li&gt;&lt;li&gt;Static reference data (Products/plans and their costs..etc)&lt;/li&gt;&lt;li&gt;&lt;br&gt;&lt;/li&gt;&lt;/ul&gt;" style="text;strokeColor=none;fillColor=none;html=1;whiteSpace=wrap;verticalAlign=middle;overflow=hidden;" vertex="1" parent="1">
          <mxGeometry x="-690" y="1950" width="410" height="90" as="geometry" />
        </mxCell>
        <mxCell id="EJEmB71T8K7dt9peTRfo-4" value="&lt;ul&gt;&lt;li&gt;Keeps track of problem ticket operations&lt;/li&gt;&lt;li&gt;Receives Operational reports&lt;/li&gt;&lt;li&gt;Receives Analytical reports&lt;/li&gt;&lt;li&gt;&lt;br&gt;&lt;/li&gt;&lt;/ul&gt;" style="text;strokeColor=none;fillColor=none;html=1;whiteSpace=wrap;verticalAlign=middle;overflow=hidden;" vertex="1" parent="1">
          <mxGeometry x="-680" y="1749" width="410" height="80" as="geometry" />
        </mxCell>
      </root>
    </mxGraphModel>
  </diagram>
  <diagram id="XvDAiUSSWPW-ntXfk5eC" name="Page-2">
    <mxGraphModel dx="3129" dy="-5" grid="1" gridSize="10" guides="1" tooltips="1" connect="1" arrows="1" fold="1" page="1" pageScale="1" pageWidth="827" pageHeight="1169" math="0" shadow="0">
      <root>
        <mxCell id="aLtJQppXOm-K-yjEnUu_-0" />
        <mxCell id="aLtJQppXOm-K-yjEnUu_-1" parent="aLtJQppXOm-K-yjEnUu_-0" />
        <mxCell id="aLtJQppXOm-K-yjEnUu_-2" value="Cross-Functional Flowchart" style="shape=table;childLayout=tableLayout;rowLines=0;columnLines=0;startSize=40;html=1;whiteSpace=wrap;collapsible=0;recursiveResize=0;expand=0;pointerEvents=0;fontStyle=1;align=center;" parent="aLtJQppXOm-K-yjEnUu_-1" vertex="1">
          <mxGeometry x="-680" y="1360" width="810" height="787" as="geometry" />
        </mxCell>
        <mxCell id="aLtJQppXOm-K-yjEnUu_-3" value="Admin" style="swimlane;horizontal=0;points=[[0,0.5],[1,0.5]];portConstraint=eastwest;startSize=40;html=1;whiteSpace=wrap;collapsible=0;recursiveResize=0;expand=0;pointerEvents=0;fontStyle=1" parent="aLtJQppXOm-K-yjEnUu_-2" vertex="1">
          <mxGeometry y="40" width="810" height="187" as="geometry" />
        </mxCell>
        <mxCell id="aLtJQppXOm-K-yjEnUu_-4" value="Ticket Creation" style="swimlane;connectable=0;startSize=40;html=1;whiteSpace=wrap;collapsible=0;recursiveResize=0;expand=0;pointerEvents=0;" parent="aLtJQppXOm-K-yjEnUu_-3" vertex="1">
          <mxGeometry x="40" width="257" height="187" as="geometry" />
        </mxCell>
        <mxCell id="aLtJQppXOm-K-yjEnUu_-5" value="Ticket Handling" style="swimlane;connectable=0;startSize=40;html=1;whiteSpace=wrap;collapsible=0;recursiveResize=0;expand=0;pointerEvents=0;" parent="aLtJQppXOm-K-yjEnUu_-3" vertex="1">
          <mxGeometry x="297" width="256" height="187" as="geometry" />
        </mxCell>
        <mxCell id="aLtJQppXOm-K-yjEnUu_-6" value="Ticket Closure" style="swimlane;connectable=0;startSize=40;html=1;whiteSpace=wrap;collapsible=0;recursiveResize=0;expand=0;pointerEvents=0;" parent="aLtJQppXOm-K-yjEnUu_-3" vertex="1">
          <mxGeometry x="553" width="257" height="187" as="geometry" />
        </mxCell>
        <mxCell id="aLtJQppXOm-K-yjEnUu_-7" value="Customer" style="swimlane;horizontal=0;points=[[0,0.5],[1,0.5]];portConstraint=eastwest;startSize=40;html=1;whiteSpace=wrap;collapsible=0;recursiveResize=0;expand=0;pointerEvents=0;" parent="aLtJQppXOm-K-yjEnUu_-2" vertex="1">
          <mxGeometry y="227" width="810" height="186" as="geometry" />
        </mxCell>
        <mxCell id="aLtJQppXOm-K-yjEnUu_-8" value="" style="swimlane;connectable=0;startSize=0;html=1;whiteSpace=wrap;collapsible=0;recursiveResize=0;expand=0;pointerEvents=0;" parent="aLtJQppXOm-K-yjEnUu_-7" vertex="1">
          <mxGeometry x="40" width="257" height="186" as="geometry" />
        </mxCell>
        <mxCell id="Z3Sf9JaexsFvczf-7HiP-0" value="Start" style="ellipse;whiteSpace=wrap;html=1;" vertex="1" parent="aLtJQppXOm-K-yjEnUu_-8">
          <mxGeometry x="70" y="23" width="70" height="43" as="geometry" />
        </mxCell>
        <mxCell id="Z3Sf9JaexsFvczf-7HiP-1" value="Create Ticket" style="rounded=0;whiteSpace=wrap;html=1;" vertex="1" parent="aLtJQppXOm-K-yjEnUu_-8">
          <mxGeometry x="45" y="103" width="120" height="60" as="geometry" />
        </mxCell>
        <mxCell id="Z3Sf9JaexsFvczf-7HiP-2" value="" style="endArrow=classic;html=1;entryX=0.5;entryY=0;entryDx=0;entryDy=0;exitX=0.5;exitY=1;exitDx=0;exitDy=0;" edge="1" parent="aLtJQppXOm-K-yjEnUu_-8" source="Z3Sf9JaexsFvczf-7HiP-0" target="Z3Sf9JaexsFvczf-7HiP-1">
          <mxGeometry width="50" height="50" relative="1" as="geometry">
            <mxPoint x="80" y="73" as="sourcePoint" />
            <mxPoint x="130" y="23" as="targetPoint" />
          </mxGeometry>
        </mxCell>
        <mxCell id="aLtJQppXOm-K-yjEnUu_-9" value="" style="swimlane;connectable=0;startSize=0;html=1;whiteSpace=wrap;collapsible=0;recursiveResize=0;expand=0;pointerEvents=0;" parent="aLtJQppXOm-K-yjEnUu_-7" vertex="1">
          <mxGeometry x="297" width="256" height="186" as="geometry" />
        </mxCell>
        <mxCell id="Z3Sf9JaexsFvczf-7HiP-3" value="Expert Located" style="rounded=0;whiteSpace=wrap;html=1;" vertex="1" parent="aLtJQppXOm-K-yjEnUu_-9">
          <mxGeometry x="63" y="14.5" width="120" height="60" as="geometry" />
        </mxCell>
        <mxCell id="Z3Sf9JaexsFvczf-7HiP-5" value="Ticket Assigned" style="rounded=0;whiteSpace=wrap;html=1;" vertex="1" parent="aLtJQppXOm-K-yjEnUu_-9">
          <mxGeometry x="63" y="103" width="120" height="60" as="geometry" />
        </mxCell>
        <mxCell id="Z3Sf9JaexsFvczf-7HiP-10" value="" style="endArrow=classic;html=1;entryX=0.5;entryY=0;entryDx=0;entryDy=0;" edge="1" parent="aLtJQppXOm-K-yjEnUu_-9" source="Z3Sf9JaexsFvczf-7HiP-3" target="Z3Sf9JaexsFvczf-7HiP-5">
          <mxGeometry width="50" height="50" relative="1" as="geometry">
            <mxPoint x="103" y="303" as="sourcePoint" />
            <mxPoint x="153" y="253" as="targetPoint" />
          </mxGeometry>
        </mxCell>
        <mxCell id="aLtJQppXOm-K-yjEnUu_-10" value="" style="swimlane;connectable=0;startSize=0;html=1;whiteSpace=wrap;collapsible=0;recursiveResize=0;expand=0;pointerEvents=0;" parent="aLtJQppXOm-K-yjEnUu_-7" vertex="1">
          <mxGeometry x="553" width="257" height="186" as="geometry" />
        </mxCell>
        <mxCell id="Z3Sf9JaexsFvczf-7HiP-4" value="" style="endArrow=classic;html=1;entryX=0;entryY=0.5;entryDx=0;entryDy=0;exitX=1;exitY=0.5;exitDx=0;exitDy=0;edgeStyle=orthogonalEdgeStyle;" edge="1" parent="aLtJQppXOm-K-yjEnUu_-7" source="Z3Sf9JaexsFvczf-7HiP-1" target="Z3Sf9JaexsFvczf-7HiP-3">
          <mxGeometry width="50" height="50" relative="1" as="geometry">
            <mxPoint x="130" y="153" as="sourcePoint" />
            <mxPoint x="180" y="103" as="targetPoint" />
          </mxGeometry>
        </mxCell>
        <mxCell id="aLtJQppXOm-K-yjEnUu_-11" value="Expert" style="swimlane;horizontal=0;points=[[0,0.5],[1,0.5]];portConstraint=eastwest;startSize=40;html=1;whiteSpace=wrap;collapsible=0;recursiveResize=0;expand=0;pointerEvents=0;" parent="aLtJQppXOm-K-yjEnUu_-2" vertex="1">
          <mxGeometry y="413" width="810" height="187" as="geometry" />
        </mxCell>
        <mxCell id="aLtJQppXOm-K-yjEnUu_-12" value="" style="swimlane;connectable=0;startSize=0;html=1;whiteSpace=wrap;collapsible=0;recursiveResize=0;expand=0;pointerEvents=0;" parent="aLtJQppXOm-K-yjEnUu_-11" vertex="1">
          <mxGeometry x="40" width="257" height="187" as="geometry" />
        </mxCell>
        <mxCell id="aLtJQppXOm-K-yjEnUu_-13" value="" style="swimlane;connectable=0;startSize=0;html=1;whiteSpace=wrap;collapsible=0;recursiveResize=0;expand=0;pointerEvents=0;" parent="aLtJQppXOm-K-yjEnUu_-11" vertex="1">
          <mxGeometry x="297" width="256" height="187" as="geometry" />
        </mxCell>
        <mxCell id="aLtJQppXOm-K-yjEnUu_-14" value="" style="swimlane;connectable=0;startSize=0;html=1;whiteSpace=wrap;collapsible=0;recursiveResize=0;expand=0;pointerEvents=0;" parent="aLtJQppXOm-K-yjEnUu_-11" vertex="1">
          <mxGeometry x="553" width="257" height="187" as="geometry" />
        </mxCell>
        <mxCell id="vYpb5QIGNWEWsmL8io5q-0" value="Manager" style="swimlane;horizontal=0;points=[[0,0.5],[1,0.5]];portConstraint=eastwest;startSize=40;html=1;whiteSpace=wrap;collapsible=0;recursiveResize=0;expand=0;pointerEvents=0;" vertex="1" parent="aLtJQppXOm-K-yjEnUu_-2">
          <mxGeometry y="600" width="810" height="187" as="geometry" />
        </mxCell>
        <mxCell id="vYpb5QIGNWEWsmL8io5q-1" value="" style="swimlane;connectable=0;startSize=0;html=1;whiteSpace=wrap;collapsible=0;recursiveResize=0;expand=0;pointerEvents=0;" vertex="1" parent="vYpb5QIGNWEWsmL8io5q-0">
          <mxGeometry x="40" width="257" height="187" as="geometry" />
        </mxCell>
        <mxCell id="vYpb5QIGNWEWsmL8io5q-2" value="" style="swimlane;connectable=0;startSize=0;html=1;whiteSpace=wrap;collapsible=0;recursiveResize=0;expand=0;pointerEvents=0;" vertex="1" parent="vYpb5QIGNWEWsmL8io5q-0">
          <mxGeometry x="297" width="256" height="187" as="geometry" />
        </mxCell>
        <mxCell id="vYpb5QIGNWEWsmL8io5q-3" value="" style="swimlane;connectable=0;startSize=0;html=1;whiteSpace=wrap;collapsible=0;recursiveResize=0;expand=0;pointerEvents=0;" vertex="1" parent="vYpb5QIGNWEWsmL8io5q-0">
          <mxGeometry x="553" width="257" height="187" as="geometry" />
        </mxCell>
      </root>
    </mxGraphModel>
  </diagram>
  <diagram id="8kB-ng7LXTdEH6x8OwXU" name="Page-3">
    <mxGraphModel dx="3129" dy="-5" grid="1" gridSize="10" guides="1" tooltips="1" connect="1" arrows="1" fold="1" page="1" pageScale="1" pageWidth="827" pageHeight="1169" math="0" shadow="0">
      <root>
        <mxCell id="42mEyLXdNHC8adgHVr76-0" />
        <mxCell id="42mEyLXdNHC8adgHVr76-1" parent="42mEyLXdNHC8adgHVr76-0" />
        <mxCell id="42mEyLXdNHC8adgHVr76-2" value="Cross-Functional Flowchart" style="shape=table;childLayout=tableLayout;rowLines=0;columnLines=0;startSize=40;html=1;whiteSpace=wrap;collapsible=0;recursiveResize=0;expand=0;pointerEvents=0;fontStyle=1;align=center;" vertex="1" parent="42mEyLXdNHC8adgHVr76-1">
          <mxGeometry x="-680" y="1360" width="810" height="787" as="geometry" />
        </mxCell>
        <mxCell id="42mEyLXdNHC8adgHVr76-3" value="Admin" style="swimlane;horizontal=0;points=[[0,0.5],[1,0.5]];portConstraint=eastwest;startSize=40;html=1;whiteSpace=wrap;collapsible=0;recursiveResize=0;expand=0;pointerEvents=0;fontStyle=1" vertex="1" parent="42mEyLXdNHC8adgHVr76-2">
          <mxGeometry y="40" width="810" height="187" as="geometry" />
        </mxCell>
        <mxCell id="42mEyLXdNHC8adgHVr76-4" value="Ticket Creation" style="swimlane;connectable=0;startSize=40;html=1;whiteSpace=wrap;collapsible=0;recursiveResize=0;expand=0;pointerEvents=0;" vertex="1" parent="42mEyLXdNHC8adgHVr76-3">
          <mxGeometry x="40" width="257" height="187" as="geometry" />
        </mxCell>
        <mxCell id="42mEyLXdNHC8adgHVr76-5" value="Ticket Handling" style="swimlane;connectable=0;startSize=40;html=1;whiteSpace=wrap;collapsible=0;recursiveResize=0;expand=0;pointerEvents=0;" vertex="1" parent="42mEyLXdNHC8adgHVr76-3">
          <mxGeometry x="297" width="256" height="187" as="geometry" />
        </mxCell>
        <mxCell id="42mEyLXdNHC8adgHVr76-6" value="Ticket Closure" style="swimlane;connectable=0;startSize=40;html=1;whiteSpace=wrap;collapsible=0;recursiveResize=0;expand=0;pointerEvents=0;" vertex="1" parent="42mEyLXdNHC8adgHVr76-3">
          <mxGeometry x="553" width="257" height="187" as="geometry" />
        </mxCell>
        <mxCell id="42mEyLXdNHC8adgHVr76-7" value="Customer" style="swimlane;horizontal=0;points=[[0,0.5],[1,0.5]];portConstraint=eastwest;startSize=40;html=1;whiteSpace=wrap;collapsible=0;recursiveResize=0;expand=0;pointerEvents=0;" vertex="1" parent="42mEyLXdNHC8adgHVr76-2">
          <mxGeometry y="227" width="810" height="186" as="geometry" />
        </mxCell>
        <mxCell id="42mEyLXdNHC8adgHVr76-8" value="" style="swimlane;connectable=0;startSize=0;html=1;whiteSpace=wrap;collapsible=0;recursiveResize=0;expand=0;pointerEvents=0;" vertex="1" parent="42mEyLXdNHC8adgHVr76-7">
          <mxGeometry x="40" width="257" height="186" as="geometry" />
        </mxCell>
        <mxCell id="42mEyLXdNHC8adgHVr76-11" value="" style="endArrow=classic;html=1;entryX=0.5;entryY=0;entryDx=0;entryDy=0;exitX=0.5;exitY=1;exitDx=0;exitDy=0;" edge="1" parent="42mEyLXdNHC8adgHVr76-8" target="42mEyLXdNHC8adgHVr76-10">
          <mxGeometry width="50" height="50" relative="1" as="geometry">
            <mxPoint x="105" y="66" as="sourcePoint" />
            <mxPoint x="130" y="23" as="targetPoint" />
          </mxGeometry>
        </mxCell>
        <mxCell id="42mEyLXdNHC8adgHVr76-12" value="" style="swimlane;connectable=0;startSize=0;html=1;whiteSpace=wrap;collapsible=0;recursiveResize=0;expand=0;pointerEvents=0;" vertex="1" parent="42mEyLXdNHC8adgHVr76-7">
          <mxGeometry x="297" width="256" height="186" as="geometry" />
        </mxCell>
        <mxCell id="42mEyLXdNHC8adgHVr76-15" value="" style="endArrow=classic;html=1;entryX=0.5;entryY=0;entryDx=0;entryDy=0;" edge="1" parent="42mEyLXdNHC8adgHVr76-12" target="42mEyLXdNHC8adgHVr76-14">
          <mxGeometry width="50" height="50" relative="1" as="geometry">
            <mxPoint x="123" y="74.5" as="sourcePoint" />
            <mxPoint x="153" y="253" as="targetPoint" />
          </mxGeometry>
        </mxCell>
        <mxCell id="42mEyLXdNHC8adgHVr76-16" value="" style="swimlane;connectable=0;startSize=0;html=1;whiteSpace=wrap;collapsible=0;recursiveResize=0;expand=0;pointerEvents=0;" vertex="1" parent="42mEyLXdNHC8adgHVr76-7">
          <mxGeometry x="553" width="257" height="186" as="geometry" />
        </mxCell>
        <mxCell id="42mEyLXdNHC8adgHVr76-18" value="Expert" style="swimlane;horizontal=0;points=[[0,0.5],[1,0.5]];portConstraint=eastwest;startSize=40;html=1;whiteSpace=wrap;collapsible=0;recursiveResize=0;expand=0;pointerEvents=0;" vertex="1" parent="42mEyLXdNHC8adgHVr76-2">
          <mxGeometry y="413" width="810" height="187" as="geometry" />
        </mxCell>
        <mxCell id="42mEyLXdNHC8adgHVr76-19" value="" style="swimlane;connectable=0;startSize=0;html=1;whiteSpace=wrap;collapsible=0;recursiveResize=0;expand=0;pointerEvents=0;" vertex="1" parent="42mEyLXdNHC8adgHVr76-18">
          <mxGeometry x="40" width="257" height="187" as="geometry" />
        </mxCell>
        <mxCell id="42mEyLXdNHC8adgHVr76-20" value="" style="swimlane;connectable=0;startSize=0;html=1;whiteSpace=wrap;collapsible=0;recursiveResize=0;expand=0;pointerEvents=0;" vertex="1" parent="42mEyLXdNHC8adgHVr76-18">
          <mxGeometry x="297" width="256" height="187" as="geometry" />
        </mxCell>
        <mxCell id="42mEyLXdNHC8adgHVr76-21" value="" style="swimlane;connectable=0;startSize=0;html=1;whiteSpace=wrap;collapsible=0;recursiveResize=0;expand=0;pointerEvents=0;" vertex="1" parent="42mEyLXdNHC8adgHVr76-18">
          <mxGeometry x="553" width="257" height="187" as="geometry" />
        </mxCell>
        <mxCell id="42mEyLXdNHC8adgHVr76-22" value="Manager" style="swimlane;horizontal=0;points=[[0,0.5],[1,0.5]];portConstraint=eastwest;startSize=40;html=1;whiteSpace=wrap;collapsible=0;recursiveResize=0;expand=0;pointerEvents=0;" vertex="1" parent="42mEyLXdNHC8adgHVr76-2">
          <mxGeometry y="600" width="810" height="187" as="geometry" />
        </mxCell>
        <mxCell id="42mEyLXdNHC8adgHVr76-23" value="" style="swimlane;connectable=0;startSize=0;html=1;whiteSpace=wrap;collapsible=0;recursiveResize=0;expand=0;pointerEvents=0;" vertex="1" parent="42mEyLXdNHC8adgHVr76-22">
          <mxGeometry x="40" width="257" height="187" as="geometry" />
        </mxCell>
        <mxCell id="42mEyLXdNHC8adgHVr76-24" value="" style="swimlane;connectable=0;startSize=0;html=1;whiteSpace=wrap;collapsible=0;recursiveResize=0;expand=0;pointerEvents=0;" vertex="1" parent="42mEyLXdNHC8adgHVr76-22">
          <mxGeometry x="297" width="256" height="187" as="geometry" />
        </mxCell>
        <mxCell id="42mEyLXdNHC8adgHVr76-25" value="" style="swimlane;connectable=0;startSize=0;html=1;whiteSpace=wrap;collapsible=0;recursiveResize=0;expand=0;pointerEvents=0;" vertex="1" parent="42mEyLXdNHC8adgHVr76-22">
          <mxGeometry x="553" width="257" height="187" as="geometry" />
        </mxCell>
        <mxCell id="42mEyLXdNHC8adgHVr76-27" value="Start" style="ellipse;whiteSpace=wrap;html=1;" vertex="1" parent="42mEyLXdNHC8adgHVr76-1">
          <mxGeometry x="505" y="1250" width="70" height="43" as="geometry" />
        </mxCell>
        <mxCell id="42mEyLXdNHC8adgHVr76-28" value="Create Ticket" style="rounded=0;whiteSpace=wrap;html=1;" vertex="1" parent="42mEyLXdNHC8adgHVr76-1">
          <mxGeometry x="480" y="1350" width="120" height="60" as="geometry" />
        </mxCell>
        <mxCell id="42mEyLXdNHC8adgHVr76-29" value="Expert Located" style="rounded=0;whiteSpace=wrap;html=1;" vertex="1" parent="42mEyLXdNHC8adgHVr76-1">
          <mxGeometry x="480" y="1456.5" width="120" height="60" as="geometry" />
        </mxCell>
        <mxCell id="42mEyLXdNHC8adgHVr76-30" value="Ticket Assigned" style="rounded=0;whiteSpace=wrap;html=1;" vertex="1" parent="42mEyLXdNHC8adgHVr76-1">
          <mxGeometry x="480" y="1556" width="120" height="60" as="geometry" />
        </mxCell>
        <mxCell id="42mEyLXdNHC8adgHVr76-31" value="" style="endArrow=classic;html=1;entryX=0.5;entryY=0;entryDx=0;entryDy=0;" edge="1" parent="42mEyLXdNHC8adgHVr76-1" source="42mEyLXdNHC8adgHVr76-28" target="42mEyLXdNHC8adgHVr76-29">
          <mxGeometry width="50" height="50" relative="1" as="geometry">
            <mxPoint x="930" y="13" as="sourcePoint" />
            <mxPoint x="980" y="-37" as="targetPoint" />
          </mxGeometry>
        </mxCell>
        <mxCell id="42mEyLXdNHC8adgHVr76-32" value="" style="endArrow=classic;html=1;entryX=0.5;entryY=0;entryDx=0;entryDy=0;exitX=0.5;exitY=1;exitDx=0;exitDy=0;" edge="1" parent="42mEyLXdNHC8adgHVr76-1" source="42mEyLXdNHC8adgHVr76-27" target="42mEyLXdNHC8adgHVr76-28">
          <mxGeometry width="50" height="50" relative="1" as="geometry">
            <mxPoint x="215" y="1540" as="sourcePoint" />
            <mxPoint x="265" y="1490" as="targetPoint" />
          </mxGeometry>
        </mxCell>
        <mxCell id="42mEyLXdNHC8adgHVr76-38" style="edgeStyle=orthogonalEdgeStyle;rounded=0;orthogonalLoop=1;jettySize=auto;html=1;exitX=0.5;exitY=1;exitDx=0;exitDy=0;" edge="1" parent="42mEyLXdNHC8adgHVr76-1" source="42mEyLXdNHC8adgHVr76-34" target="42mEyLXdNHC8adgHVr76-37">
          <mxGeometry relative="1" as="geometry">
            <mxPoint x="745" y="1670" as="targetPoint" />
          </mxGeometry>
        </mxCell>
        <mxCell id="42mEyLXdNHC8adgHVr76-34" value="Push Ticket Info,&lt;br&gt;Notify Expert" style="rounded=0;whiteSpace=wrap;html=1;" vertex="1" parent="42mEyLXdNHC8adgHVr76-1">
          <mxGeometry x="480" y="1646" width="120" height="60" as="geometry" />
        </mxCell>
        <mxCell id="42mEyLXdNHC8adgHVr76-35" value="" style="endArrow=classic;html=1;entryX=0.5;entryY=0;entryDx=0;entryDy=0;" edge="1" parent="42mEyLXdNHC8adgHVr76-1" source="42mEyLXdNHC8adgHVr76-29" target="42mEyLXdNHC8adgHVr76-30">
          <mxGeometry width="50" height="50" relative="1" as="geometry">
            <mxPoint x="465" y="1880" as="sourcePoint" />
            <mxPoint x="515" y="1830" as="targetPoint" />
          </mxGeometry>
        </mxCell>
        <mxCell id="42mEyLXdNHC8adgHVr76-36" value="" style="endArrow=classic;html=1;exitX=0.5;exitY=1;exitDx=0;exitDy=0;" edge="1" parent="42mEyLXdNHC8adgHVr76-1" source="42mEyLXdNHC8adgHVr76-30" target="42mEyLXdNHC8adgHVr76-34">
          <mxGeometry width="50" height="50" relative="1" as="geometry">
            <mxPoint x="315" y="1870" as="sourcePoint" />
            <mxPoint x="365" y="1820" as="targetPoint" />
          </mxGeometry>
        </mxCell>
        <mxCell id="42mEyLXdNHC8adgHVr76-37" value="Notify Customer" style="rounded=0;whiteSpace=wrap;html=1;" vertex="1" parent="42mEyLXdNHC8adgHVr76-1">
          <mxGeometry x="480" y="1750" width="120" height="60" as="geometry" />
        </mxCell>
        <mxCell id="42mEyLXdNHC8adgHVr76-39" value="Push Notifications to&amp;nbsp; Customer" style="rounded=0;whiteSpace=wrap;html=1;" vertex="1" parent="42mEyLXdNHC8adgHVr76-1">
          <mxGeometry x="480" y="1850" width="120" height="60" as="geometry" />
        </mxCell>
        <mxCell id="42mEyLXdNHC8adgHVr76-40" value="Update/Closure of Ticket by Expert" style="rounded=0;whiteSpace=wrap;html=1;" vertex="1" parent="42mEyLXdNHC8adgHVr76-1">
          <mxGeometry x="480" y="1947" width="120" height="60" as="geometry" />
        </mxCell>
        <mxCell id="42mEyLXdNHC8adgHVr76-49" value="" style="edgeStyle=none;rounded=0;orthogonalLoop=1;jettySize=auto;html=1;" edge="1" parent="42mEyLXdNHC8adgHVr76-1" source="42mEyLXdNHC8adgHVr76-41" target="42mEyLXdNHC8adgHVr76-42">
          <mxGeometry relative="1" as="geometry" />
        </mxCell>
        <mxCell id="42mEyLXdNHC8adgHVr76-41" value="Closure Survey to Customer" style="rounded=0;whiteSpace=wrap;html=1;" vertex="1" parent="42mEyLXdNHC8adgHVr76-1">
          <mxGeometry x="480" y="2040" width="120" height="60" as="geometry" />
        </mxCell>
        <mxCell id="42mEyLXdNHC8adgHVr76-42" value="Customer feedback through Survey" style="rounded=0;whiteSpace=wrap;html=1;" vertex="1" parent="42mEyLXdNHC8adgHVr76-1">
          <mxGeometry x="480" y="2130" width="120" height="60" as="geometry" />
        </mxCell>
        <mxCell id="42mEyLXdNHC8adgHVr76-43" value="End" style="ellipse;whiteSpace=wrap;html=1;" vertex="1" parent="42mEyLXdNHC8adgHVr76-1">
          <mxGeometry x="505" y="2230" width="70" height="43" as="geometry" />
        </mxCell>
        <mxCell id="42mEyLXdNHC8adgHVr76-44" value="Update to Knowledge base" style="rounded=0;whiteSpace=wrap;html=1;" vertex="1" parent="42mEyLXdNHC8adgHVr76-1">
          <mxGeometry x="660" y="1947" width="120" height="60" as="geometry" />
        </mxCell>
        <mxCell id="42mEyLXdNHC8adgHVr76-45" value="" style="endArrow=classic;html=1;entryX=0.5;entryY=0;entryDx=0;entryDy=0;exitX=0.5;exitY=1;exitDx=0;exitDy=0;" edge="1" parent="42mEyLXdNHC8adgHVr76-1" source="42mEyLXdNHC8adgHVr76-37" target="42mEyLXdNHC8adgHVr76-39">
          <mxGeometry width="50" height="50" relative="1" as="geometry">
            <mxPoint x="360" y="1850" as="sourcePoint" />
            <mxPoint x="410" y="1800" as="targetPoint" />
          </mxGeometry>
        </mxCell>
        <mxCell id="42mEyLXdNHC8adgHVr76-46" value="" style="endArrow=classic;html=1;entryX=0.5;entryY=0;entryDx=0;entryDy=0;exitX=0.5;exitY=1;exitDx=0;exitDy=0;" edge="1" parent="42mEyLXdNHC8adgHVr76-1">
          <mxGeometry width="50" height="50" relative="1" as="geometry">
            <mxPoint x="539.5" y="1910" as="sourcePoint" />
            <mxPoint x="539.5" y="1950" as="targetPoint" />
          </mxGeometry>
        </mxCell>
        <mxCell id="42mEyLXdNHC8adgHVr76-47" value="" style="endArrow=classic;html=1;" edge="1" parent="42mEyLXdNHC8adgHVr76-1" source="42mEyLXdNHC8adgHVr76-41" target="42mEyLXdNHC8adgHVr76-42">
          <mxGeometry width="50" height="50" relative="1" as="geometry">
            <mxPoint x="560" y="1830" as="sourcePoint" />
            <mxPoint x="560" y="1870" as="targetPoint" />
          </mxGeometry>
        </mxCell>
        <mxCell id="42mEyLXdNHC8adgHVr76-48" value="" style="endArrow=classic;html=1;exitX=0.5;exitY=1;exitDx=0;exitDy=0;" edge="1" parent="42mEyLXdNHC8adgHVr76-1" source="42mEyLXdNHC8adgHVr76-40">
          <mxGeometry width="50" height="50" relative="1" as="geometry">
            <mxPoint x="550" y="2110" as="sourcePoint" />
            <mxPoint x="540" y="2040" as="targetPoint" />
          </mxGeometry>
        </mxCell>
        <mxCell id="42mEyLXdNHC8adgHVr76-50" value="" style="endArrow=classic;html=1;exitX=0.5;exitY=1;exitDx=0;exitDy=0;entryX=0.5;entryY=0;entryDx=0;entryDy=0;" edge="1" parent="42mEyLXdNHC8adgHVr76-1" source="42mEyLXdNHC8adgHVr76-42" target="42mEyLXdNHC8adgHVr76-43">
          <mxGeometry width="50" height="50" relative="1" as="geometry">
            <mxPoint x="560" y="2120" as="sourcePoint" />
            <mxPoint x="560" y="2150" as="targetPoint" />
          </mxGeometry>
        </mxCell>
        <mxCell id="42mEyLXdNHC8adgHVr76-51" value="" style="endArrow=classic;html=1;entryX=0;entryY=0.5;entryDx=0;entryDy=0;" edge="1" parent="42mEyLXdNHC8adgHVr76-1" source="42mEyLXdNHC8adgHVr76-40" target="42mEyLXdNHC8adgHVr76-44">
          <mxGeometry width="50" height="50" relative="1" as="geometry">
            <mxPoint x="550" y="2017" as="sourcePoint" />
            <mxPoint x="550" y="2050" as="targetPoint" />
          </mxGeometry>
        </mxCell>
        <mxCell id="42mEyLXdNHC8adgHVr76-52" value="Ticket Workflow" style="text;strokeColor=none;fillColor=none;html=1;fontSize=24;fontStyle=1;verticalAlign=middle;align=center;" vertex="1" parent="42mEyLXdNHC8adgHVr76-1">
          <mxGeometry x="270" y="1190" width="100" height="40" as="geometry" />
        </mxCell>
      </root>
    </mxGraphModel>
  </diagram>
</mxfile>
